<svg width="20" height="21" viewBox="0 0 20 21" fill="none" xmlns="http://www.w3.org/2000/svg">
<path d="M4.16669 11.3333L13.475 11.3333L9.40835 15.4C9.08335 15.725 9.08335 16.2583 9.40835 16.5833C9.48545 16.6606 9.57702 16.7219 9.67783 16.7637C9.77865 16.8055 9.88671 16.827 9.99585 16.827C10.105 16.827 10.2131 16.8055 10.3139 16.7637C10.4147 16.7219 10.5063 16.6606 10.5834 16.5833L16.075 11.0917C16.1523 11.0146 16.2136 10.923 16.2554 10.8222C16.2972 10.7214 16.3187 10.6133 16.3187 10.5042C16.3187 10.395 16.2972 10.287 16.2554 10.1861C16.2136 10.0853 16.1523 9.99376 16.075 9.91666L10.5834 4.425C10.5062 4.34785 10.4146 4.28665 10.3138 4.24489C10.213 4.20314 10.105 4.18165 9.99586 4.18165C9.88675 4.18165 9.77871 4.20314 9.6779 4.24489C9.5771 4.28665 9.48551 4.34785 9.40836 4.425C9.3312 4.50215 9.27 4.59374 9.22825 4.69455C9.1865 4.79535 9.165 4.90339 9.165 5.0125C9.165 5.12161 9.1865 5.22965 9.22825 5.33045C9.27 5.43125 9.3312 5.52285 9.40836 5.6L13.475 9.66666L4.16669 9.66666C3.70835 9.66666 3.33335 10.0417 3.33335 10.5C3.33335 10.9583 3.70835 11.3333 4.16669 11.3333Z" fill="#0E1116"/>
</svg>
